<svg width="16" height="16" viewBox="0 0 16 16" fill="none" xmlns="http://www.w3.org/2000/svg">
<path d="M8 9.5C9.06019 9.49936 10.104 9.62414 11.1318 9.87402C12.1579 10.1235 13.1707 10.4955 14.1699 10.9932V10.9941C14.5702 11.2012 14.8911 11.4997 15.1367 11.8994C15.3492 12.2452 15.4681 12.6177 15.4941 13.0234L15.5 13.1992V15.5H0.5V13.2002L0.505859 13.0234C0.532408 12.6172 0.652012 12.2455 0.864258 11.9004C1.10992 11.501 1.43009 11.202 1.83008 10.9941L1.8291 10.9932C2.82837 10.4941 3.84128 10.1222 4.86719 9.87402C5.89527 9.62535 6.93951 9.50067 8 9.5ZM13.5 13.5H2.5V13.1982C2.49966 13.1037 2.52213 13.0283 2.56348 12.9609C2.61041 12.8846 2.66717 12.8301 2.7373 12.79C3.60174 12.3603 4.4709 12.0387 5.34473 11.8232C6.22254 11.6068 7.10762 11.4994 8 11.5C8.89278 11.5007 9.7781 11.608 10.6562 11.8232C11.5297 12.0373 12.3984 12.3591 13.2627 12.79C13.3335 12.8301 13.3895 12.8844 13.4355 12.96C13.477 13.0281 13.5 13.1044 13.5 13.2002V13.5ZM8 0.5C8.96634 0.5 9.78137 0.838007 10.4717 1.52832C11.162 2.21863 11.5 3.03366 11.5 4C11.5 4.96634 11.162 5.78137 10.4717 6.47168C9.78137 7.16199 8.96634 7.5 8 7.5C7.03366 7.5 6.21863 7.16199 5.52832 6.47168C4.83801 5.78137 4.5 4.96634 4.5 4L4.50391 3.82031C4.54365 2.93215 4.88122 2.17542 5.52832 1.52832C6.17542 0.881216 6.93215 0.54365 7.82031 0.503906L8 0.5ZM8.00098 1.5C7.31529 1.4984 6.71702 1.74859 6.2334 2.23633C5.75214 2.7217 5.50252 3.31729 5.5 3.99805C5.4975 4.68177 5.74794 5.28016 6.23438 5.7666C6.72072 6.25294 7.31869 6.50321 8.00195 6.5L8.00098 6.49902C8.68408 6.49879 9.28184 6.25054 9.7666 5.7666C10.2519 5.282 10.5008 4.68339 10.5 3.99902C10.4991 3.31562 10.2505 2.71823 9.7666 2.23438C9.28268 1.75046 8.6848 1.50165 8.00098 1.5ZM14.5 13.2002C14.5 12.9295 14.4311 12.6722 14.29 12.4404C14.1544 12.2177 13.9705 12.0384 13.7422 11.9121L13.7324 11.9072L13.7236 11.9023L13.374 11.7334C12.5566 11.3512 11.7293 11.0574 10.8936 10.8525C9.93862 10.6185 8.97363 10.5007 8 10.5C7.02591 10.4993 6.06079 10.617 5.10547 10.8525C4.15094 11.0879 3.20804 11.4384 2.27734 11.9023L2.2666 11.9072L2.25684 11.9131C2.02983 12.0393 1.84666 12.2172 1.71094 12.4385C1.60403 12.6128 1.53845 12.8018 1.5127 13L1.5 13.2002V14.5H14.5V13.2002Z" fill="#C3BDBD" stroke="#C3BDBD"/>
<path d="M8 9.5C9.06019 9.49936 10.104 9.62414 11.1318 9.87402C12.1579 10.1235 13.1707 10.4955 14.1699 10.9932V10.9941C14.5702 11.2012 14.8911 11.4997 15.1367 11.8994C15.3492 12.2452 15.4681 12.6177 15.4941 13.0234L15.5 13.1992V15.5H0.5V13.2002L0.505859 13.0234C0.532408 12.6172 0.652012 12.2455 0.864258 11.9004C1.10992 11.501 1.43009 11.202 1.83008 10.9941L1.8291 10.9932C2.82837 10.4941 3.84128 10.1222 4.86719 9.87402C5.89527 9.62535 6.93951 9.50067 8 9.5ZM8 10.5C7.02591 10.4993 6.06079 10.617 5.10547 10.8525C4.15094 11.0879 3.20804 11.4384 2.27734 11.9023L2.2666 11.9072L2.25684 11.9131C2.02983 12.0393 1.84666 12.2172 1.71094 12.4385C1.60403 12.6128 1.53845 12.8018 1.5127 13L1.5 13.2002V14.5H14.5V13.2002C14.5 12.9295 14.4311 12.6722 14.29 12.4404C14.1544 12.2177 13.9705 12.0384 13.7422 11.9121L13.7324 11.9072L13.7236 11.9023L13.374 11.7334C12.5566 11.3512 11.7293 11.0574 10.8936 10.8525C9.93862 10.6185 8.97363 10.5007 8 10.5ZM8 0.5C8.96634 0.5 9.78137 0.838007 10.4717 1.52832C11.162 2.21863 11.5 3.03366 11.5 4C11.5 4.96634 11.162 5.78137 10.4717 6.47168C9.78137 7.16199 8.96634 7.5 8 7.5C7.03366 7.5 6.21863 7.16199 5.52832 6.47168C4.83801 5.78137 4.5 4.96634 4.5 4L4.50391 3.82031C4.54365 2.93215 4.88122 2.17542 5.52832 1.52832C6.17542 0.881216 6.93215 0.54365 7.82031 0.503906L8 0.5ZM8.00098 1.5C7.31529 1.4984 6.71702 1.74859 6.2334 2.23633C5.75214 2.7217 5.50252 3.31729 5.5 3.99805C5.4975 4.68177 5.74794 5.28016 6.23438 5.7666C6.72072 6.25294 7.31869 6.50321 8.00195 6.5L8.00098 6.49902C8.68408 6.49879 9.28184 6.25054 9.7666 5.7666C10.2519 5.282 10.5008 4.68339 10.5 3.99902C10.4991 3.31562 10.2505 2.71823 9.7666 2.23438C9.28268 1.75046 8.6848 1.50165 8.00098 1.5Z" fill="black" stroke="#C3BDBD"/>
<circle cx="10.5" cy="12.5" r="2" stroke="black"/>
</svg>
